<svg xmlns="http://www.w3.org/2000/svg" xmlns:xlink="http://www.w3.org/1999/xlink" width="284" height="74" version="1.1" viewBox="0 0 284 74"><title>Group 3</title><desc>Created with Sketch.</desc><defs><linearGradient id="linearGradient-1" x1="50%" x2="50%" y1="3.082%" y2="100%"><stop offset="0%" stop-color="#77AC69"/><stop offset="48.144%" stop-color="#F7AC1C"/><stop offset="100%" stop-color="#F7E71C"/></linearGradient><linearGradient id="linearGradient-2" x1="50%" x2="50%" y1="0%" y2="100%"><stop offset="0%" stop-color="#5E98BE"/><stop offset="100%" stop-color="#A04774"/></linearGradient><linearGradient id="linearGradient-3" x1="50%" x2="50%" y1="0%" y2="100%"><stop offset="0%" stop-color="#00B2BF"/><stop offset="100%" stop-color="#16AB8F"/></linearGradient><linearGradient id="linearGradient-4" x1="27.937%" x2="137.324%" y1="78.43%" y2="37.594%"><stop offset="0%" stop-color="#E1519A"/><stop offset="48.04%" stop-color="#FDBA53"/><stop offset="100%" stop-color="#B4EC51"/></linearGradient><linearGradient id="linearGradient-5" x1=".258%" x2="101.258%" y1="49.75%" y2="49.75%"><stop offset="0%" stop-color="#00B0E2"/><stop offset="47.525%" stop-color="#8977B2"/><stop offset="100%" stop-color="#3551A2"/></linearGradient><linearGradient id="linearGradient-6" x1=".258%" x2="101.258%" y1="49.75%" y2="49.75%"><stop offset="0%" stop-color="#EDB85B"/><stop offset="48.078%" stop-color="#CE908E"/><stop offset="100%" stop-color="#D8569F"/></linearGradient><linearGradient id="linearGradient-7" x1="50%" x2="50%" y1="97.828%" y2=".866%"><stop offset="0%" stop-color="#7DA1CF"/><stop offset="47.525%" stop-color="#DD539E"/><stop offset="100%" stop-color="#EC9A51"/></linearGradient><linearGradient id="linearGradient-8" x1="35.345%" x2="84.661%" y1="2.683%" y2="87.367%"><stop offset="0%" stop-color="#7D8CC0"/><stop offset="100%" stop-color="#1A6BAF"/></linearGradient><radialGradient id="radialGradient-9" cx="50%" cy="7.684%" r="335.752%" fx="50%" fy="7.684%" gradientTransform="translate(0.500000,0.076844),scale(1.000000,0.228507),rotate(90.000000),translate(-0.500000,-0.076844)"><stop offset="0%" stop-color="#D09E6E"/><stop offset="47.525%" stop-color="#F9D76A"/><stop offset="100%" stop-color="#86B67A"/></radialGradient><linearGradient id="linearGradient-10" x1="3.17%" x2="101.258%" y1="49.75%" y2="49.75%"><stop offset="0%" stop-color="#FEEB5C"/><stop offset="47.525%" stop-color="#D06E67"/><stop offset="100%" stop-color="#7D6FAE"/></linearGradient></defs><g id="Desktop" fill="none" fill-rule="evenodd" stroke="none" stroke-width="1"><g id="Body" transform="translate(-580.000000, -223.000000)"><g id="Group-3" transform="translate(577.000000, 220.000000)"><rect id="Rectangle" width="19.6" height="71.75" x="77.35" y="4.2" fill="url(#linearGradient-1)" rx="9.8"/><rect id="Rectangle" width="19.6" height="71.75" x="107.8" y="4.2" fill="url(#linearGradient-2)" rx="9.8"/><rect id="Rectangle" width="61.519" height="19.45" x="217.27" y="22.097" fill="url(#linearGradient-3)" rx="9.725" transform="translate(248.029728, 31.822201) rotate(-297.000000) translate(-248.029728, -31.822201)"/><path id="Combined-Shape" fill="url(#linearGradient-4)" d="M267.896949,52.4675148 L267.896949,59.0070844 L267.896949,66.2969487 C267.896949,71.7093393 263.509339,76.0969487 258.096949,76.0969487 C252.684558,76.0969487 248.296949,71.7093393 248.296949,66.2969487 L248.296949,58.7789286 L248.296949,52.386809 C247.944664,50.3817112 248.216623,48.249676 249.212042,46.2960562 L268.311093,8.81205728 C270.749482,4.02644998 276.605688,2.12365335 281.391295,4.56204206 C286.176903,7.00043078 288.079699,12.8566366 285.641311,17.6422439 L267.896949,52.4675148 Z"/><rect id="Rectangle" width="49.7" height="17.15" x="107.8" y="4.2" fill="url(#linearGradient-5)" rx="8.575"/><rect id="Rectangle" width="46.9" height="17.15" x="107.8" y="33.6" fill="url(#linearGradient-6)" rx="8.575"/><rect id="Rectangle" width="19.6" height="71.75" x="3.85" y="4.2" fill="url(#linearGradient-7)" rx="9.8"/><rect id="Rectangle" width="19.6" height="71.75" x="44.45" y="4.2" fill="url(#linearGradient-8)" rx="9.8"/><rect id="Rectangle" width="19.6" height="85.774" x="24.326" y="-2.708" fill="url(#radialGradient-9)" rx="9.8" transform="translate(34.126398, 40.178924) rotate(-38.000000) translate(-34.126398, -40.178924)"/><rect id="Rectangle" width="19.6" height="71.75" x="180.95" y="4.2" fill="url(#linearGradient-8)" rx="9.8"/><rect id="Rectangle" width="57.75" height="17.15" x="161.7" y="4.2" fill="url(#linearGradient-10)" rx="8.575"/></g></g></g></svg>